<svg id="Ebene_1" data-name="Ebene 1" xmlns="http://www.w3.org/2000/svg" width="56.73mm" height="18.5mm" viewBox="0 0 160.82 52.45"><defs><style>.cls-1{fill:#1d1d1b;}.cls-2{fill:#ffde00;}.cls-3{fill:#e30613;}</style></defs><title>StaatsImmobilien-Logo</title><path class="cls-1" d="M1.06,46.36c.26,1.56,1,2.35,2.31,2.35A1.69,1.69,0,0,0,5.18,47a1.5,1.5,0,0,0-.59-1.23A7.46,7.46,0,0,0,3.33,45a7.64,7.64,0,0,1-1.83-1.1,1.9,1.9,0,0,1-.6-1.48,2.28,2.28,0,0,1,2.5-2.3,2.16,2.16,0,0,1,1.7.68l.39-.73h.24v2.4H5.41c-.3-1.34-.9-2-1.92-2a1.6,1.6,0,0,0-1.65,1.6,1.34,1.34,0,0,0,.75,1.2A10.66,10.66,0,0,0,3.86,44a10,10,0,0,1,1.49.86,2.08,2.08,0,0,1,.8,1.73,2.45,2.45,0,0,1-2.62,2.5,3,3,0,0,1-2.07-.76L1,49.2H.76V46.36Z"/><path class="cls-1" d="M13.62,47.85c0,.71.11.8,1.08.88V49a13.8,13.8,0,0,0-1.62-.1,14.13,14.13,0,0,0-1.65.1v-.31c1-.08,1.08-.17,1.08-.88V40.68h-.7c-.93,0-1.23.31-1.62,1.6H9.87l.35-2h5.72l.37,2H16c-.35-1.29-.65-1.6-1.54-1.6h-.83Z"/><path class="cls-1" d="M21,46.48l-.43,1.23a2.41,2.41,0,0,0-.15.61c0,.28.21.37.86.41V49c-.55,0-.85-.07-1.24-.07s-.7,0-1.25.07v-.31c.8-.06,1-.17,1.26-.93l3-7.8,2.7,7.94c.2.6.39.72,1.21.79V49a12.77,12.77,0,0,0-3.19,0v-.31c.64-.06.84-.16.84-.43a1.73,1.73,0,0,0-.13-.54l-.4-1.28ZM24,46.07l-1.28-4-1.49,4Z"/><path class="cls-1" d="M32.57,46.48l-.43,1.23a2.18,2.18,0,0,0-.16.61c0,.28.21.37.86.41V49C32.29,49,32,49,31.6,49s-.69,0-1.24.07v-.31c.8-.06,1-.17,1.26-.93l3-7.8,2.69,7.94c.21.6.39.72,1.22.79V49a12.77,12.77,0,0,0-3.19,0v-.31c.64-.06.83-.16.83-.43a1.46,1.46,0,0,0-.13-.54l-.39-1.28Zm2.93-.41-1.28-4-1.49,4Z"/><path class="cls-1" d="M44.81,47.85c0,.71.1.8,1.07.88V49a13.8,13.8,0,0,0-1.62-.1,14.13,14.13,0,0,0-1.65.1v-.31c1-.08,1.09-.17,1.09-.88V40.68H43c-.93,0-1.23.31-1.62,1.6h-.32l.36-2h5.71l.37,2h-.32c-.35-1.29-.65-1.6-1.54-1.6h-.82Z"/><path class="cls-1" d="M51.72,46.36c.27,1.56,1.05,2.35,2.32,2.35A1.68,1.68,0,0,0,55.84,47a1.5,1.5,0,0,0-.59-1.23A7.17,7.17,0,0,0,54,45a7.41,7.41,0,0,1-1.83-1.1,1.87,1.87,0,0,1-.6-1.48,2.28,2.28,0,0,1,2.49-2.3,2.16,2.16,0,0,1,1.7.68l.4-.73h.23v2.4h-.31c-.3-1.34-.9-2-1.92-2a1.6,1.6,0,0,0-1.65,1.6,1.33,1.33,0,0,0,.74,1.2,11.69,11.69,0,0,0,1.27.68,9,9,0,0,1,1.49.86,2.06,2.06,0,0,1,.8,1.73,2.44,2.44,0,0,1-2.61,2.5,2.94,2.94,0,0,1-2.07-.76l-.47.84h-.24V46.36Z"/><path class="cls-1" d="M64.26,49A13.42,13.42,0,0,0,61,49v-.31c1-.08,1.08-.17,1.08-.88V41.43c0-.71-.12-.8-1.08-.88v-.31c.78.06,1.16.09,1.63.09s.86,0,1.64-.09v.31c-1,.08-1.08.17-1.08.88v6.42c0,.71.1.8,1.08.88Z"/><path class="cls-1" d="M69.77,47.86c0,.67.14.8,1.07.87V49c-.63,0-.92-.07-1.28-.07s-.67,0-1.32.07v-.31c.91-.07,1-.17,1.08-.87l.26-6.43,0-.08a.58.58,0,0,0-.33-.65,1.89,1.89,0,0,0-.76-.13v-.33c.5,0,.72,0,1.07,0a10.87,10.87,0,0,0,1.25-.06l2.43,6.61,2.46-6.61c.57.05.89.06,1.25.06s.55,0,1,0v.31c-.92.07-1.09.2-1.08.88l.13,6.43c0,.68.16.81,1.09.87V49C77.36,49,77,49,76.52,49s-.85,0-1.64.09v-.31c.9-.06,1.1-.2,1.09-.8l0-.07-.1-6.78-2.17,5.83c-.08.21-.08.23-.33.93-.1.3-.21.61-.33.91h-.19c-.2-.59-.43-1.21-.67-1.89L70,41.05Z"/><path class="cls-1" d="M83.63,47.86c0,.67.14.8,1.07.87V49c-.63,0-.92-.07-1.28-.07s-.67,0-1.32.07v-.31c.91-.07,1-.17,1.08-.87l.26-6.43,0-.08a.58.58,0,0,0-.33-.65,1.89,1.89,0,0,0-.76-.13v-.33c.5,0,.72,0,1.07,0a10.87,10.87,0,0,0,1.25-.06l2.43,6.61,2.46-6.61c.57.05.89.06,1.25.06s.55,0,1,0v.31c-.92.07-1.09.2-1.08.88l.13,6.43c0,.68.16.81,1.09.87V49C91.22,49,90.85,49,90.37,49s-.85,0-1.63.09v-.31c.9-.06,1.1-.2,1.09-.8l0-.07-.1-6.78-2.17,5.83c-.08.21-.08.23-.33.93-.11.3-.21.61-.33.91h-.19c-.2-.59-.44-1.21-.67-1.89l-2.13-5.81Z"/><path class="cls-1" d="M103.19,44.69c0,2.68-1.39,4.47-3.48,4.47s-3.53-1.78-3.53-4.55,1.38-4.5,3.49-4.5S103.19,41.87,103.19,44.69Zm-5.83-.1c0,2.65.87,4.2,2.35,4.2s2.3-1.52,2.3-4.14-.82-4.18-2.31-4.18S97.36,42,97.36,44.59Z"/><path class="cls-1" d="M110.81,40.28a2.71,2.71,0,0,1,1.8.47,2.1,2.1,0,0,1,.78,1.66A2,2,0,0,1,112,44.35a2.51,2.51,0,0,1,.89.32,2.12,2.12,0,0,1,1,1.83,2.4,2.4,0,0,1-1.08,2,3.43,3.43,0,0,1-2,.46h-3.3v-.31c1-.08,1.07-.17,1.07-.87V41.47c0-.69-.13-.81-1.07-.86v-.33Zm-.38,4a1.63,1.63,0,0,0,1.36-.43,1.94,1.94,0,0,0,.43-1.37c0-1.22-.47-1.76-1.57-1.76h-1.11v3.56Zm-.89,3.69c0,.57.12.67.8.67h.48c1.17,0,1.82-.74,1.82-2a2.17,2.17,0,0,0-.47-1.48,1.8,1.8,0,0,0-1.39-.43h-1.24Z"/><path class="cls-1" d="M121.26,49a14.87,14.87,0,0,0-1.65-.1A14.29,14.29,0,0,0,118,49v-.31c1-.08,1.07-.17,1.07-.88V41.43c0-.71-.12-.8-1.07-.88v-.31c.77.06,1.15.09,1.62.09s.86,0,1.65-.09v.31c-1,.08-1.09.17-1.09.88v6.42c0,.71.11.8,1.09.88Z"/><path class="cls-1" d="M131,49h-5.77v-.33c1-.06,1.07-.17,1.07-.86V41.43c0-.71-.11-.8-1.07-.88v-.31c.77.06,1.15.09,1.62.09s.87,0,1.65-.09v.31c-1,.08-1.09.17-1.09.88v6.36c0,.62.17.77.88.77h.93c.73,0,1.06-.15,1.35-.6A3.76,3.76,0,0,0,131,46.9h.3Z"/><path class="cls-1" d="M138.24,49a14.87,14.87,0,0,0-1.65-.1A14.54,14.54,0,0,0,135,49v-.31c1-.08,1.07-.17,1.07-.88V41.43c0-.71-.11-.8-1.07-.88v-.31c.77.06,1.15.09,1.62.09s.87,0,1.65-.09v.31c-1,.08-1.08.17-1.08.88v6.42c0,.71.1.8,1.08.88Z"/><path class="cls-1" d="M148,49h-5.76v-.33c.95-.06,1.07-.15,1.07-.86V41.47c0-.69-.13-.81-1.07-.86v-.33h5.68l.24,2h-.3c-.33-1.24-.63-1.56-1.55-1.56H144.4v3.59h1.87c.59,0,.73-.2.77-1.07h.33v2.56H147c0-.85-.21-1.09-.84-1.09h-1.8v3.15c0,.63.17.78.87.78h.93c1,0,1.44-.38,1.78-1.7h.3Z"/><path class="cls-1" d="M159.16,49.26c-.09-.14-.2-.3-.29-.46s-.25-.37-.36-.57l-.38-.56-.32-.49L154,41.38v6.47c0,.71.1.8,1.08.88V49c-.72,0-1-.07-1.32-.07s-.63,0-1.28.07v-.31c1-.08,1.08-.17,1.08-.88V41c-.23-.27-.49-.36-1.09-.4v-.31c.45,0,.69,0,1.11,0s.56,0,.94,0l4.43,6.63V41.43c0-.71-.13-.8-1.07-.88v-.31c.68,0,1,.06,1.32.06s.64,0,1.28-.06v.31c-.95.08-1.08.17-1.08.88v7.83Z"/><rect class="cls-2" x="85.26" y="15.63" width="10.35" height="10.35" transform="translate(11.78 70.04) rotate(-45)"/><rect class="cls-2" x="95.25" y="5.64" width="10.35" height="10.35" transform="translate(21.77 74.18) rotate(-45)"/><rect class="cls-2" x="105.24" y="15.63" width="10.35" height="10.35" transform="translate(17.63 84.17) rotate(-45)"/><rect class="cls-3" x="65.23" y="15.58" width="10.35" height="10.35" transform="translate(5.95 55.86) rotate(-45)"/><rect class="cls-3" x="75.22" y="5.59" width="10.35" height="10.35" transform="translate(15.94 60) rotate(-45)"/><rect class="cls-1" x="45.23" y="15.55" width="10.35" height="10.35" transform="translate(0.11 41.71) rotate(-45)"/><rect class="cls-1" x="55.22" y="5.56" width="10.35" height="10.35" transform="translate(10.1 45.85) rotate(-45)"/></svg>